<?xml version="1.0" encoding="UTF-8"?>
<svg width="669px" height="374px" viewBox="0 0 669 374" version="1.1" xmlns="http://www.w3.org/2000/svg" xmlns:xlink="http://www.w3.org/1999/xlink">
    <title>2020RDLogo</title>
    <defs>
        <polygon id="path-1" points="0.177 31.754 54.548 54.988 31.308 0.616"></polygon>
        <linearGradient x1="0.00183921576%" y1="50%" x2="99.9998161%" y2="50%" id="linearGradient-3">
            <stop stop-color="#C3996B" offset="0%"></stop>
            <stop stop-color="#8A5D3B" offset="100%"></stop>
        </linearGradient>
        <path d="M0.33,8.503 L100.473,108.645 C101.588,104.817 103.652,101.21 106.663,98.198 C109.623,95.236 113.212,93.122 117.131,91.986 L25.363,0.218 L0.33,8.503 Z" id="path-4"></path>
        <linearGradient x1="58.7392231%" y1="55.7553648%" x2="18.3080624%" y2="13.7318633%" id="linearGradient-6">
            <stop stop-color="#E19525" offset="0%"></stop>
            <stop stop-color="#BA7229" offset="100%"></stop>
        </linearGradient>
        <polygon id="path-7" points="0.168 3.022 1.363 4.218 12.291 0.6"></polygon>
        <linearGradient x1="826.024911%" y1="267.689837%" x2="330.547719%" y2="127.811783%" id="linearGradient-9">
            <stop stop-color="#E19525" offset="0%"></stop>
            <stop stop-color="#BA7229" offset="100%"></stop>
        </linearGradient>
        <path d="M0.363,4.218 L92.131,95.986 C93.118,92.604 94.845,89.395 97.308,86.616 L11.291,0.6 L0.363,4.218 Z" id="path-10"></path>
        <linearGradient x1="88.0963433%" y1="82.696813%" x2="26.4776935%" y2="25.3461605%" id="linearGradient-12">
            <stop stop-color="#E19525" offset="0%"></stop>
            <stop stop-color="#BA7229" offset="100%"></stop>
        </linearGradient>
        <path d="M0.363,4.218 L92.131,95.986 C93.118,92.604 94.845,89.395 97.308,86.616 L11.291,0.6 L0.363,4.218 Z" id="path-13"></path>
        <linearGradient x1="88.5667131%" y1="104.002112%" x2="34.4422095%" y2="24.1210449%" id="linearGradient-15">
            <stop stop-color="#E19525" offset="0%"></stop>
            <stop stop-color="#BA7229" offset="100%"></stop>
        </linearGradient>
        <path d="M0.51,4.085 L102.178,105.754 C104.895,103.366 108.057,101.636 111.473,100.645 L11.33,0.503 L0.51,4.085 Z" id="path-16"></path>
        <linearGradient x1="88.5286086%" y1="83.9535007%" x2="34.6942675%" y2="35.650467%" id="linearGradient-18">
            <stop stop-color="#E19525" offset="0%"></stop>
            <stop stop-color="#BA7229" offset="100%"></stop>
        </linearGradient>
        <path d="M0.51,4.085 L102.178,105.754 C104.895,103.366 108.057,101.636 111.473,100.645 L11.33,0.503 L0.51,4.085 Z" id="path-19"></path>
        <linearGradient x1="90.3382208%" y1="85.5776407%" x2="25.7521877%" y2="27.627643%" id="linearGradient-21">
            <stop stop-color="#E19525" offset="0%"></stop>
            <stop stop-color="#BA7229" offset="100%"></stop>
        </linearGradient>
        <path d="M0.335,0.866 L0.335,230.229 L44.362,230.229 L44.362,137.75 L173.258,137.75 C175.912,137.713 238.384,136.806 247.1,136.806 L247.416,136.806 C266.889,134.405 282.677,127.024 295.554,114.364 C308.336,101.474 314.548,86.771 314.548,69.4 C314.548,50.544 307.337,34.833 292.501,21.366 C277.306,7.573 259.424,0.866 237.826,0.866 L0.335,0.866 Z M44.362,107.103 L44.362,32.059 L230.857,32.059 C231.519,32.033 232.176,32.021 232.825,32.021 C243.398,32.021 252.576,35.604 259.411,42.393 C267.179,49.259 271.207,58.645 271.078,69.583 C271.207,80.167 267.158,89.579 259.59,96.599 C252.305,103.7 242.727,107.303 231.115,107.303 L44.362,107.103 Z" id="path-22"></path>
        <linearGradient x1="74.1872551%" y1="21.2412904%" x2="21.777584%" y2="50.8717576%" id="linearGradient-24">
            <stop stop-color="#E19525" offset="0%"></stop>
            <stop stop-color="#BA7229" offset="100%"></stop>
        </linearGradient>
        <path d="M0.08,0.866 L0.08,230.233 L257.854,230.233 C271.14,230.233 283.538,227.375 294.88,221.654 C306.55,215.983 315.621,208.435 322.818,198.3 C329.776,189.055 333.017,179.453 332.717,168.581 L332.72,62.156 C333.017,51.614 329.822,41.986 322.956,32.728 L322.64,32.283 C316.071,22.59 307.088,15.133 295.025,9.42 C283.46,3.746 270.952,0.866 257.854,0.866 L0.08,0.866 Z M44.112,32.059 L242.914,32.059 C243.534,32.038 244.151,32.025 244.758,32.025 C256.661,32.025 266.875,36.069 275.126,44.037 C284,51.992 288.689,62.556 288.689,74.613 L288.689,156.485 C288.689,168.011 284.016,178.499 275.18,186.821 L274.86,187.108 C266.435,194.527 255.936,198.537 243.672,199.032 L44.112,199.04 L44.112,32.059 Z" id="path-25"></path>
        <linearGradient x1="84.7032721%" y1="23.3870813%" x2="29.0522787%" y2="59.5273911%" id="linearGradient-27">
            <stop stop-color="#006BA4" offset="0%"></stop>
            <stop stop-color="#1A3B6A" offset="100%"></stop>
        </linearGradient>
        <polygon id="path-28" points="0.335 230.229 44.362 230.229 0.335 0.866"></polygon>
        <linearGradient x1="52.725985%" y1="39.0006235%" x2="47.3509091%" y2="60.6883848%" id="linearGradient-30">
            <stop stop-color="#E19525" offset="0%"></stop>
            <stop stop-color="#BA7229" offset="100%"></stop>
        </linearGradient>
        <polygon id="path-31" points="0.08 230.233 257.854 230.233 44.112 199.04 0.08 0.866"></polygon>
        <linearGradient x1="3.31453133%" y1="52.4378735%" x2="57.491446%" y2="92.2847224%" id="linearGradient-33">
            <stop stop-color="#006BA4" offset="0%"></stop>
            <stop stop-color="#1A3B6A" offset="100%"></stop>
        </linearGradient>
    </defs>
    <g id="2020RDLogo" stroke="none" stroke-width="1" fill="none" fill-rule="evenodd">
        <g>
            <path d="M300.43,277.861 C257.19,278.048 213.932,278.484 170.743,280.393 C159.955,280.93 149.152,281.509 138.441,282.724 C135.77,283.047 133.096,283.402 130.49,283.949 C129.206,284.234 127.87,284.546 126.801,285.078 C126.555,285.208 126.317,285.381 126.252,285.476 C126.248,285.547 126.203,285.339 126.322,285.548 C126.62,285.851 127.236,286.156 127.808,286.394 C132.74,288.152 138.18,288.925 143.467,289.81 C164.782,293.188 186.408,294.119 207.988,294.924 C294.402,297.369 380.896,295.007 467.389,294.444 C510.658,294.353 553.878,293.427 597.306,296.666 C602.754,297.213 608.167,297.757 613.739,299.15 C615.143,299.531 616.546,299.934 618.071,300.689 C618.812,301.055 619.666,301.55 620.529,302.527 C621.525,303.398 621.944,305.953 621.128,307.193 C619.747,309.593 618.347,310.071 617.043,310.963 C615.717,311.73 614.433,312.303 613.114,312.879 C602.579,317.117 591.808,318.969 581.062,320.799 C559.539,324.189 537.931,326.048 516.332,327.68 C473.13,330.857 429.872,332.453 386.763,334.96 C375.996,335.61 365.228,336.313 354.557,337.343 C349.236,337.874 343.899,338.465 338.795,339.393 C336.36,339.84 333.523,340.487 332.152,341.215 C331.832,341.209 332.048,341.845 332.715,339.917 C332.674,337.598 331.907,337.868 332.277,337.954 C332.746,338.296 333.882,338.841 334.987,339.247 C344.6,342.323 355.712,345.148 365.878,348.965 C371.062,350.906 376.203,352.921 381.328,355.92 C382.611,356.69 383.893,357.523 385.192,358.643 C386.428,359.826 387.976,361.022 388.82,364.007 C389.205,365.502 388.93,367.535 388.078,368.878 C387.267,370.199 386.31,370.98 385.442,371.59 C383.646,372.741 382.222,373.266 380.347,373.753 C378.186,374.313 375.981,373.016 375.421,370.856 C374.861,368.695 376.158,366.49 378.318,365.93 C378.35,365.922 378.383,365.914 378.415,365.906 L378.594,365.865 C379.336,365.696 380.474,365.245 380.943,364.916 C381.182,364.758 381.254,364.626 381.161,364.794 C381.022,364.97 380.906,365.574 380.999,365.761 C381.312,365.993 379.175,363.726 377.202,362.718 C373.013,360.211 368.072,358.172 363.153,356.301 C353.086,352.443 343.2,349.917 332.262,346.313 C330.855,345.741 329.478,345.216 327.744,343.982 C327.292,343.627 326.805,343.237 326.252,342.509 C325.727,341.832 325.002,340.442 325.281,338.746 C326.193,335.43 327.76,335.292 328.552,334.624 C332.043,332.941 334.619,332.651 337.466,332.066 C343.01,331.106 348.434,330.557 353.873,330.054 C364.732,329.091 375.552,328.471 386.37,327.902 C429.623,325.724 472.825,324.467 515.909,321.635 C537.431,320.178 558.969,318.488 580.2,315.311 C590.737,313.625 601.467,311.784 611.057,307.991 C612.219,307.498 613.41,306.969 614.427,306.385 C615.39,305.894 616.486,304.956 616.401,304.933 C616.246,304.971 616.437,305.973 616.498,305.849 C616.464,305.824 616.177,305.535 615.699,305.326 C614.806,304.867 613.606,304.479 612.407,304.152 C607.492,302.873 602.112,302.257 596.818,301.692 C553.99,298.158 510.587,298.723 467.405,298.484 C380.94,298.373 294.414,300.064 207.912,296.943 C186.312,295.968 164.631,294.868 143.228,291.306 C137.884,290.359 132.535,289.592 127.28,287.678 C126.624,287.377 125.966,287.128 125.304,286.469 C124.94,286.215 124.672,285.195 125.127,284.704 C125.469,284.251 125.829,284.071 126.171,283.876 C127.536,283.218 128.87,282.949 130.218,282.652 C132.908,282.109 135.602,281.774 138.298,281.469 C149.085,280.332 159.893,279.838 170.7,279.384 C213.933,277.810782 257.186,277.711 300.43,277.861" id="Fill-11" fill="#1A3B6A"></path>
            <g id="Group-14" transform="translate(260.000000, 198.000000)">
                <mask id="mask-2" fill="white">
                    <use xlink:href="#path-1"></use>
                </mask>
                <g id="Clip-13"></g>
                <polygon id="Fill-12" fill="url(#linearGradient-3)" mask="url(#mask-2)" points="0.177 31.754 54.548 54.988 31.308 0.616"></polygon>
            </g>
            <path d="M314.547,252.988 L296.439,245.25 C296.439,245.25 294.917,243.903 300.19,238.63 C305.163,233.657 306.844,234.967 306.844,234.967 L314.547,252.988 Z" id="Fill-15" fill="#1A3B6A"></path>
            <g id="Group-18" transform="translate(169.000000, 116.000000)">
                <mask id="mask-5" fill="white">
                    <use xlink:href="#path-4"></use>
                </mask>
                <g id="Clip-17"></g>
                <path d="M0.33,8.503 L100.473,108.645 C101.588,104.817 103.652,101.21 106.663,98.198 C109.623,95.236 113.212,93.122 117.131,91.986 L25.363,0.218 L0.33,8.503 Z" id="Fill-16" fill="url(#linearGradient-6)" mask="url(#mask-5)"></path>
            </g>
            <g id="Group-21" transform="translate(193.000000, 112.000000)">
                <mask id="mask-8" fill="white">
                    <use xlink:href="#path-7"></use>
                </mask>
                <g id="Clip-20"></g>
                <polygon id="Fill-19" fill="url(#linearGradient-9)" mask="url(#mask-8)" points="0.168 3.022 1.363 4.218 12.291 0.6"></polygon>
            </g>
            <g id="Group-24" transform="translate(194.000000, 112.000000)">
                <mask id="mask-11" fill="white">
                    <use xlink:href="#path-10"></use>
                </mask>
                <g id="Clip-23"></g>
                <path d="M0.363,4.218 L92.131,95.986 C93.118,92.604 94.845,89.395 97.308,86.616 L11.291,0.6 L0.363,4.218 Z" id="Fill-22" fill="url(#linearGradient-12)" mask="url(#mask-11)"></path>
            </g>
            <g id="Group-27" transform="translate(194.000000, 112.000000)">
                <mask id="mask-14" fill="white">
                    <use xlink:href="#path-13"></use>
                </mask>
                <g id="Clip-26"></g>
                <path d="M0.363,4.218 L92.131,95.986 C93.118,92.604 94.845,89.395 97.308,86.616 L11.291,0.6 L0.363,4.218 Z" id="Fill-25" fill="url(#linearGradient-15)" mask="url(#mask-14)"></path>
            </g>
            <g id="Group-30" transform="translate(158.000000, 124.000000)">
                <mask id="mask-17" fill="white">
                    <use xlink:href="#path-16"></use>
                </mask>
                <g id="Clip-29"></g>
                <path d="M0.51,4.085 L102.178,105.754 C104.895,103.366 108.057,101.636 111.473,100.645 L11.33,0.503 L0.51,4.085 Z" id="Fill-28" fill="url(#linearGradient-18)" mask="url(#mask-17)"></path>
            </g>
            <g id="Group-33" transform="translate(158.000000, 124.000000)">
                <mask id="mask-20" fill="white">
                    <use xlink:href="#path-19"></use>
                </mask>
                <g id="Clip-32"></g>
                <path d="M0.51,4.085 L102.178,105.754 C104.895,103.366 108.057,101.636 111.473,100.645 L11.33,0.503 L0.51,4.085 Z" id="Fill-31" fill="url(#linearGradient-21)" mask="url(#mask-20)"></path>
            </g>
            <g id="Group-36">
                <mask id="mask-23" fill="white">
                    <use xlink:href="#path-22"></use>
                </mask>
                <g id="Clip-35"></g>
                <path d="M0.335,0.866 L0.335,230.229 L44.362,230.229 L44.362,137.75 L173.258,137.75 C175.912,137.713 238.384,136.806 247.1,136.806 L247.416,136.806 C266.889,134.405 282.677,127.024 295.554,114.364 C308.336,101.474 314.548,86.771 314.548,69.4 C314.548,50.544 307.337,34.833 292.501,21.366 C277.306,7.573 259.424,0.866 237.826,0.866 L0.335,0.866 Z M44.362,107.103 L44.362,32.059 L230.857,32.059 C231.519,32.033 232.176,32.021 232.825,32.021 C243.398,32.021 252.576,35.604 259.411,42.393 C267.179,49.259 271.207,58.645 271.078,69.583 C271.207,80.167 267.158,89.579 259.59,96.599 C252.305,103.7 242.727,107.303 231.115,107.303 L44.362,107.103 Z" id="Fill-34" fill="url(#linearGradient-24)" mask="url(#mask-23)"></path>
            </g>
            <g id="Group-39" transform="translate(336.000000, 0.000000)">
                <mask id="mask-26" fill="white">
                    <use xlink:href="#path-25"></use>
                </mask>
                <g id="Clip-38"></g>
                <path d="M0.08,0.866 L0.08,230.233 L257.854,230.233 C271.14,230.233 283.538,227.375 294.88,221.654 C306.55,215.983 315.621,208.435 322.818,198.3 C329.776,189.055 333.017,179.453 332.717,168.581 L332.72,62.156 C333.017,51.614 329.822,41.986 322.956,32.728 L322.64,32.283 C316.071,22.59 307.088,15.133 295.025,9.42 C283.46,3.746 270.952,0.866 257.854,0.866 L0.08,0.866 Z M44.112,32.059 L242.914,32.059 C243.534,32.038 244.151,32.025 244.758,32.025 C256.661,32.025 266.875,36.069 275.126,44.037 C284,51.992 288.689,62.556 288.689,74.613 L288.689,156.485 C288.689,168.011 284.016,178.499 275.18,186.821 L274.86,187.108 C266.435,194.527 255.936,198.537 243.672,199.032 L44.112,199.04 L44.112,32.059 Z" id="Fill-37" fill="url(#linearGradient-27)" mask="url(#mask-26)"></path>
            </g>
            <g id="Group-42">
                <mask id="mask-29" fill="white">
                    <use xlink:href="#path-28"></use>
                </mask>
                <g id="Clip-41"></g>
                <polygon id="Fill-40" fill="url(#linearGradient-30)" mask="url(#mask-29)" points="0.335 230.229 44.362 230.229 0.335 0.866"></polygon>
            </g>
            <g id="Group-45" transform="translate(336.000000, 0.000000)">
                <mask id="mask-32" fill="white">
                    <use xlink:href="#path-31"></use>
                </mask>
                <g id="Clip-44"></g>
                <polygon id="Fill-43" fill="url(#linearGradient-33)" mask="url(#mask-32)" points="0.08 230.233 257.854 230.233 44.112 199.04 0.08 0.866"></polygon>
            </g>
        </g>
    </g>
</svg>